{
  "accessors": [
    {
      "bufferView": 2,
      "componentType": 5126,
      "count": 1736,
      "max": [
        3.5708107948303223,
        2.718677520751953,
        0.6826925277709961
      ],
      "min": [
        -3.499706745147705,
        -2.7085418701171875,
        -1.6325370073318481
      ],
      "type": "VEC3"
    },
    {
      "bufferView": 2,
      "byteOffset": 20832,
      "componentType": 5126,
      "count": 1736,
      "max": [
        0.9994348883628845,
        0.9999749660491943,
        0.9997658133506775
      ],
      "min": [
        -0.9957759976387024,
        -0.9999425411224365,
        -0.9992262125015259
      ],
      "type": "VEC3"
    },
    {
      "bufferView": 1,
      "componentType": 5126,
      "count": 1736,
      "max": [
        0.9629567265510559,
        0.964652955532074
      ],
      "min": [
        0.01250477135181427,
        0.029819384217262268
      ],
      "type": "VEC2"
    },
    {
      "bufferView": 0,
      "componentType": 5125,
      "count": 2730,
      "type": "SCALAR"
    }
  ],
  "asset": {
    "extras": {
      "author": "Ministerio de Cultura Perú (https://sketchfab.com/MinisteriodeCulturaPeru)",
      "license": "CC-BY-4.0 (http://creativecommons.org/licenses/by/4.0/)",
      "source": "https://sketchfab.com/3d-models/platos-gemelos-de-estilo-inca-d951220a40fa4b1c8b8deacde38805ec",
      "title": "Platos gemelos de estilo Inca"
    },
    "generator": "Sketchfab-12.67.0",
    "version": "2.0"
  },
  "bufferViews": [
    {
      "buffer": 0,
      "byteLength": 10920,
      "name": "floatBufferViews",
      "target": 34963
    },
    {
      "buffer": 0,
      "byteLength": 13888,
      "byteOffset": 10920,
      "byteStride": 8,
      "name": "floatBufferViews",
      "target": 34962
    },
    {
      "buffer": 0,
      "byteLength": 41664,
      "byteOffset": 24808,
      "byteStride": 12,
      "name": "floatBufferViews",
      "target": 34962
    }
  ],
  "buffers": [
    {
      "byteLength": 66472,
      "uri": "scene.bin"
    }
  ],
  "images": [
    {
      "uri": "textures/Scene_-_Root_emissive.jpeg"
    }
  ],
  "materials": [
    {
      "doubleSided": true,
      "emissiveFactor": [
        1.0,
        1.0,
        1.0
      ],
      "emissiveTexture": {
        "index": 0
      },
      "name": "Scene_-_Root",
      "pbrMetallicRoughness": {
        "metallicFactor": 0.0,
        "roughnessFactor": 0.6
      }
    }
  ],
  "meshes": [
    {
      "name": "Box002__0",
      "primitives": [
        {
          "attributes": {
            "NORMAL": 1,
            "POSITION": 0,
            "TEXCOORD_0": 2
          },
          "indices": 3,
          "material": 0,
          "mode": 4
        }
      ]
    }
  ],
  "nodes": [
    {
      "children": [
        1
      ],
      "matrix": [
        1.0,
        0.0,
        0.0,
        0.0,
        0.0,
        -0.0052223484963180855,
        0.9999863505363464,
        0.0,
        0.0,
        -0.9999863505363464,
        -0.0052223484963180855,
        0.0,
        0.0,
        0.9498346447944641,
        0.0024756612256171427,
        1.0
      ],
      "name": "Sketchfab_model"
    },
    {
      "children": [
        2
      ],
      "matrix": [
        1.0,
        0.0,
        0.0,
        0.0,
        0.0,
        -1.0,
        0.0,
        0.0,
        0.0,
        0.0,
        -1.0,
        0.0,
        0.0,
        0.0,
        0.0,
        1.0
      ],
      "name": "RN 139582.FBX"
    },
    {
      "children": [
        3
      ],
      "name": "RootNode"
    },
    {
      "children": [
        4
      ],
      "matrix": [
        1.0,
        0.0,
        0.0,
        0.0,
        0.0,
        1.0,
        0.0,
        0.0,
        0.0,
        0.0,
        1.0,
        0.0,
        0.0,
        0.0,
        -0.474922239780426,
        1.0
      ],
      "name": "Box002"
    },
    {
      "children": [
        5
      ],
      "matrix": [
        1.0,
        0.0,
        -0.0,
        0.0,
        0.0,
        1.0,
        0.0,
        0.0,
        0.0,
        0.0,
        1.0,
        0.0,
        -0.035552024841308594,
        -0.0050678253173828125,
        0.474922239780426,
        1.0
      ],
      "name": "Object_4"
    },
    {
      "mesh": 0,
      "name": "Box002__0"
    }
  ],
  "samplers": [
    {
      "magFilter": 9729,
      "minFilter": 9987,
      "wrapS": 10497,
      "wrapT": 10497
    }
  ],
  "scene": 0,
  "scenes": [
    {
      "name": "Sketchfab_Scene",
      "nodes": [
        0
      ]
    }
  ],
  "textures": [
    {
      "sampler": 0,
      "source": 0
    }
  ]
}
